# xmcd
#
# Track frame offsets: 
#        225
#        19300
#        38743
#        53006
#        68654
#        88263
#        103506
#        124663
#        142490
#        166516
#        185973
#        199912
#        217432
#        231861
#
# Disc length: 3385 seconds
#
# Revision: 0
# Processed by: cddbd v1.4PL0 Copyright (c) Steve Scherf et al.
# Submitted via: ExactAudioCopy v0.90a11
#
DISCID=d60d360e
DTITLE=2000 Lbs of Blues - Livin' Large
DYEAR=1900
DGENRE=
TTITLE0=Wolf On the River
TTITLE1=Kidney Stew
TTITLE2=Pink Champagne
TTITLE3=Big Stella's Peepshow
TTITLE4=Waiting Up For You
TTITLE5=Roll Over and Turn Out the Lights
TTITLE6=Dr. Brown
TTITLE7=Here There and Everywhere
TTITLE8=Honky Tonk
TTITLE9=Stoop Down Baby
TTITLE10=How Can You Be So Mean
TTITLE11=Drivin' Thru Utah
TTITLE12=Lowe Groovin'
TTITLE13=Blue and Lonesome
EXTD=
EXTT0=
EXTT1=
EXTT2=
EXTT3=
EXTT4=
EXTT5=
EXTT6=
EXTT7=
EXTT8=
EXTT9=
EXTT10=
EXTT11=
EXTT12=
EXTT13=
PLAYORDER=
